# Blender v2.93.1 OBJ File: 'uploads_files_2721943_Steve_riged(1).blend'
# www.blender.org
o Cube_Cube.001
v -0.259019 1.557534 0.251516
v -0.259019 2.074780 0.251516
v -0.259019 1.557534 -0.265730
v -0.259019 2.074780 -0.265730
v 0.258227 1.557534 0.251516
v 0.258227 2.074780 0.251516
v 0.258227 1.557534 -0.265730
v 0.258227 2.074780 -0.265730
vt 0.389796 0.859622
vt 0.265725 0.733832
vt 0.389796 0.733832
vt 0.265433 0.859989
vt 0.141162 0.734291
vt 0.265433 0.734291
vt 0.139489 0.859053
vt 0.000380 0.734488
vt 0.139489 0.734488
vt 0.514972 0.859598
vt 0.390767 0.734628
vt 0.514972 0.734628
vt 0.390196 0.859804
vt 0.265708 0.999849
vt 0.265902 0.859804
vt 0.264884 0.868595
vt 0.140781 0.999864
vt 0.140781 0.868595
vt 0.265725 0.859622
vt 0.141162 0.859989
vt 0.000380 0.859053
vt 0.390767 0.859598
vt 0.390002 0.999849
vt 0.264884 0.999864
vn -1.0000 0.0000 0.0000
vn 0.0000 0.0000 -1.0000
vn 1.0000 0.0000 0.0000
vn 0.0000 0.0000 1.0000
vn 0.0000 -1.0000 0.0000
vn 0.0000 1.0000 0.0000
s off
f 2/1/1 3/2/1 1/3/1
f 4/4/2 7/5/2 3/6/2
f 8/7/3 5/8/3 7/9/3
f 6/10/4 1/11/4 5/12/4
f 7/13/5 1/14/5 3/15/5
f 4/16/6 6/17/6 8/18/6
f 2/1/1 4/19/1 3/2/1
f 4/4/2 8/20/2 7/5/2
f 8/7/3 6/21/3 5/8/3
f 6/10/4 2/22/4 1/11/4
f 7/13/5 5/23/5 1/14/5
f 4/16/6 2/24/6 6/17/6
o Cube.001_Cube.002
v -0.259019 0.781665 0.122205
v -0.259019 1.557534 0.122205
v -0.259019 0.781665 -0.136418
v -0.259019 1.557534 -0.136418
v 0.258227 0.781665 0.122205
v 0.258227 1.557534 0.122205
v 0.258227 0.781665 -0.136418
v 0.258227 1.557534 -0.136418
vt 0.515705 0.670545
vt 0.453538 0.484521
vt 0.515705 0.484521
vt 0.453157 0.672807
vt 0.328948 0.484857
vt 0.453157 0.484857
vt 0.328478 0.670893
vt 0.266222 0.484629
vt 0.328478 0.484629
vt 0.640730 0.672311
vt 0.515080 0.484480
vt 0.640342 0.484480
vt 0.577755 0.672366
vt 0.454041 0.734264
vt 0.453417 0.672366
vt 0.452865 0.672394
vt 0.328026 0.734832
vt 0.328026 0.672394
vt 0.453538 0.670545
vt 0.328948 0.672807
vt 0.266222 0.670893
vt 0.515467 0.672311
vt 0.578380 0.734264
vt 0.452865 0.734832
vn -1.0000 0.0000 0.0000
vn 0.0000 0.0000 -1.0000
vn 1.0000 0.0000 0.0000
vn 0.0000 0.0000 1.0000
vn 0.0000 -1.0000 0.0000
vn 0.0000 1.0000 0.0000
s off
f 10/25/7 11/26/7 9/27/7
f 12/28/8 15/29/8 11/30/8
f 16/31/9 13/32/9 15/33/9
f 14/34/10 9/35/10 13/36/10
f 15/37/11 9/38/11 11/39/11
f 12/40/12 14/41/12 16/42/12
f 10/25/7 12/43/7 11/26/7
f 12/28/8 16/44/8 15/29/8
f 16/31/9 14/45/9 13/32/9
f 14/34/10 10/46/10 9/35/10
f 15/37/11 13/47/11 9/38/11
f 12/40/12 10/48/12 14/41/12
o Cube.002_Cube.003
v -0.000396 0.005796 0.122205
v -0.000396 0.781665 0.122205
v -0.000396 0.005796 -0.136418
v -0.000396 0.781665 -0.136418
v 0.258227 0.005796 0.122205
v 0.258227 0.781665 0.122205
v 0.258227 0.005796 -0.136418
v 0.258227 0.781665 -0.136418
v -0.000396 0.548927 0.122205
v -0.000396 0.548927 -0.136418
v 0.258227 0.548927 -0.136418
v 0.258227 0.548927 0.122205
vt 0.079135 0.387152
vt 0.019021 0.281384
vt 0.077885 0.280704
vt 0.390628 0.171075
vt 0.329031 0.126663
vt 0.390628 0.125854
vt 0.327900 0.171752
vt 0.265851 0.111605
vt 0.328231 0.111810
vt 0.389442 0.171490
vt 0.328499 0.109129
vt 0.389814 0.108301
vt 0.453379 0.233990
vt 0.391298 0.172224
vt 0.453379 0.172224
vt 0.390581 0.233261
vt 0.329079 0.172280
vt 0.390581 0.172280
vt 0.515303 0.108301
vt 0.452736 0.000202
vt 0.516093 -0.000573
vt 0.266223 0.000449
vt 0.327900 0.000449
vt 0.390628 0.093863
vt 0.329363 -0.000154
vt 0.390628 -0.000154
vt 0.019021 0.034557
vt 0.079135 0.034557
vt 0.019021 0.387152
vt 0.329363 0.171075
vt 0.266223 0.171752
vt 0.328798 0.171877
vt 0.391298 0.233990
vt 0.329079 0.233261
vt 0.453987 0.109129
vt 0.329031 0.094673
vn -1.0000 0.0000 0.0000
vn 0.0000 0.0000 -1.0000
vn 1.0000 0.0000 0.0000
vn 0.0000 0.0000 1.0000
vn 0.0000 -1.0000 0.0000
vn 0.0000 1.0000 0.0000
s off
f 18/49/13 26/50/13 25/51/13
f 20/52/14 27/53/14 26/54/14
f 24/55/15 28/56/15 27/57/15
f 22/58/16 25/59/16 28/60/16
f 23/61/17 17/62/17 19/63/17
f 20/64/18 22/65/18 24/66/18
f 28/67/16 17/68/16 21/69/16
f 27/57/15 21/70/15 23/71/15
f 26/72/14 23/73/14 19/74/14
f 25/51/13 19/75/13 17/76/13
f 18/49/13 20/77/13 26/50/13
f 20/52/14 24/78/14 27/53/14
f 24/55/15 22/79/15 28/56/15
f 22/58/16 18/80/16 25/59/16
f 23/61/17 21/81/17 17/62/17
f 20/64/18 18/82/18 22/65/18
f 28/67/16 25/83/16 17/68/16
f 27/57/15 28/56/15 21/70/15
f 26/72/14 27/84/14 23/73/14
f 25/51/13 26/50/13 19/75/13
o Cube.003_Cube.008
v -0.259019 0.005796 0.122205
v -0.259019 0.781665 0.122205
v -0.259019 0.005796 -0.136418
v -0.259019 0.781665 -0.136418
v -0.000396 0.005796 0.122205
v -0.000396 0.781665 0.122205
v -0.000396 0.005796 -0.136418
v -0.000396 0.781665 -0.136418
v -0.259019 0.550477 0.122205
v -0.259019 0.550477 -0.136418
v -0.000396 0.550477 -0.136418
v -0.000396 0.550477 0.122205
vt 0.202825 0.672075
vt 0.140518 0.609893
vt 0.202515 0.610375
vt 0.140383 0.671312
vt 0.078349 0.594449
vt 0.139807 0.594868
vt 0.078084 0.671511
vt 0.000456 0.612062
vt 0.078416 0.612266
vt 0.266700 0.672669
vt 0.204594 0.568381
vt 0.267072 0.568717
vt 0.202881 0.734181
vt 0.140339 0.671953
vt 0.202881 0.671953
vt 0.140225 0.504746
vt 0.079338 0.388089
vt 0.140225 0.388089
vt 0.266103 0.568717
vt 0.203343 0.484659
vt 0.265731 0.484659
vt 0.000828 0.484564
vt 0.078084 0.484564
vt 0.079295 0.484726
vt 0.140576 0.484726
vt 0.140712 0.484889
vt 0.202779 0.485012
vt 0.140712 0.671613
vt 0.078230 0.671797
vt 0.000828 0.671511
vt 0.203343 0.672669
vt 0.140339 0.734181
vt 0.079338 0.504746
vn -1.0000 0.0000 0.0000
vn 0.0000 0.0000 -1.0000
vn 1.0000 0.0000 0.0000
vn 0.0000 0.0000 1.0000
vn 0.0000 -1.0000 0.0000
vn 0.0000 1.0000 0.0000
s off
f 30/85/19 38/86/19 37/87/19
f 32/88/20 39/89/20 38/90/20
f 36/91/21 40/92/21 39/93/21
f 34/94/22 37/95/22 40/96/22
f 35/97/23 29/98/23 31/99/23
f 32/100/24 34/101/24 36/102/24
f 40/103/22 29/104/22 33/105/22
f 39/93/21 33/106/21 35/107/21
f 38/90/20 35/108/20 31/109/20
f 37/87/19 31/110/19 29/111/19
f 30/85/19 32/112/19 38/86/19
f 32/88/20 36/113/20 39/89/20
f 36/91/21 34/114/21 40/92/21
f 34/94/22 30/115/22 37/95/22
f 35/97/23 33/116/23 29/98/23
f 32/100/24 30/117/24 34/101/24
f 40/103/22 37/95/22 29/104/22
f 39/93/21 40/92/21 33/106/21
f 38/90/20 39/89/20 35/108/20
f 37/87/19 38/86/19 31/110/19
o Cube.004_Cube.005
v 0.258227 0.782241 -0.139264
v 0.258227 1.558102 -0.135844
v 0.516850 0.782241 -0.139264
v 0.516850 1.558102 -0.135844
v 0.258227 0.781101 0.119357
v 0.258227 1.556962 0.122777
v 0.516850 0.781101 0.119356
v 0.516850 1.556962 0.122777
v 0.258227 1.298037 -0.136990
v 0.516850 1.298037 -0.136990
v 0.516850 1.296897 0.121630
v 0.258227 1.296897 0.121630
v 0.516850 1.166080 -0.137572
v 0.516850 1.164939 0.121048
v 0.258227 1.164939 0.121049
v 0.258227 1.166079 -0.137572
vt 0.890681 0.671889
vt 0.828085 0.609143
vt 0.890681 0.609143
vt 0.640779 0.172604
vt 0.703193 0.109620
vt 0.640779 0.109620
vt 0.765772 0.671979
vt 0.702952 0.609038
vt 0.765752 0.609285
vt 0.703057 0.671782
vt 0.640952 0.609434
vt 0.703180 0.609315
vt 0.765606 0.672364
vt 0.827902 0.734607
vt 0.765606 0.734607
vt 0.703354 0.734627
vt 0.765580 0.672448
vt 0.765580 0.734627
vt 0.640557 0.562279
vt 0.703408 0.562481
vt 0.703268 0.578443
vt 0.765772 0.578451
vt 0.766054 0.573296
vt 0.828975 0.609342
vt 0.829283 0.573296
vt 0.828085 0.562274
vt 0.890681 0.562273
vt 0.828085 0.484493
vt 0.890681 0.484492
vt 0.765878 0.573301
vt 0.828753 0.484406
vt 0.765878 0.484406
vt 0.703684 0.484657
vt 0.765772 0.484463
vt 0.640596 0.484334
vt 0.703031 0.484334
vt 0.828085 0.671890
vt 0.703193 0.172604
vt 0.703374 0.671979
vt 0.640951 0.671685
vt 0.827902 0.672364
vt 0.703354 0.672448
vt 0.765747 0.609342
vt 0.828753 0.573301
vn -0.0000 0.0044 -1.0000
vn 1.0000 0.0000 -0.0000
vn 0.0000 -0.0044 1.0000
vn -1.0000 0.0000 0.0000
vn 0.0000 -1.0000 -0.0044
vn 0.0000 1.0000 0.0044
s off
f 42/118/25 50/119/25 49/120/25
f 44/121/26 51/122/26 50/123/26
f 48/124/27 52/125/27 51/126/27
f 46/127/28 49/128/28 52/129/28
f 47/130/29 41/131/29 43/132/29
f 48/133/30 42/134/30 46/135/30
f 52/129/28 56/136/28 55/137/28
f 51/126/27 55/138/27 54/139/27
f 53/140/26 51/141/26 54/142/26
f 49/120/25 53/143/25 56/144/25
f 56/144/25 43/145/25 41/146/25
f 53/147/26 47/148/26 43/149/26
f 54/139/27 45/150/27 47/151/27
f 55/137/28 41/152/28 45/153/28
f 42/118/25 44/154/25 50/119/25
f 44/121/26 48/155/26 51/122/26
f 48/124/27 46/156/27 52/125/27
f 46/127/28 42/157/28 49/128/28
f 47/130/29 45/158/29 41/131/29
f 48/133/30 44/159/30 42/134/30
f 52/129/28 49/128/28 56/136/28
f 51/126/27 52/125/27 55/138/27
f 53/140/26 50/160/26 51/141/26
f 49/120/25 50/119/25 53/143/25
f 56/144/25 53/143/25 43/145/25
f 53/147/26 54/161/26 47/148/26
f 54/139/27 55/138/27 45/150/27
f 55/137/28 56/136/28 41/152/28
o Cube.005_Cube.007
v -0.257691 0.781665 0.122205
v -0.257691 1.557533 0.122205
v -0.516314 0.781665 0.122205
v -0.516314 1.557533 0.122205
v -0.257691 0.781665 -0.136418
v -0.257691 1.557533 -0.136418
v -0.516314 0.781665 -0.136418
v -0.516314 1.557533 -0.136418
v -0.257691 1.298153 0.122205
v -0.516314 1.298153 0.122205
v -0.516314 1.298153 -0.136418
v -0.257691 1.298153 -0.136418
vt 0.765072 0.171321
vt 0.703534 0.110053
vt 0.765072 0.110053
vt 0.641339 0.672183
vt 0.703478 0.609693
vt 0.640989 0.609693
vt 0.640819 0.171705
vt 0.578059 0.109204
vt 0.640819 0.108722
vt 0.765233 0.171163
vt 0.703490 0.110038
vt 0.765931 0.109190
vt 0.640533 0.172538
vt 0.703115 0.234388
vt 0.640533 0.234388
vt 0.578500 0.171953
vt 0.640358 0.234109
vt 0.578500 0.234109
vt 0.577066 0.109190
vt 0.514922 0.000020
vt 0.576447 0.000020
vt 0.578731 0.000061
vt 0.640819 0.000061
vt 0.515500 0.109205
vt 0.577990 0.000281
vt 0.516111 0.000281
vt 0.704999 0.000756
vt 0.765072 0.000756
vt 0.703534 0.171322
vt 0.703479 0.671939
vt 0.578731 0.171705
vt 0.703464 0.171529
vt 0.703115 0.172538
vt 0.640358 0.171953
vt 0.514625 0.110038
vt 0.577990 0.109205
vt 0.704999 0.110053
vn 0.0000 0.0000 1.0000
vn -1.0000 0.0000 0.0000
vn -0.0000 0.0000 -1.0000
vn 1.0000 0.0000 -0.0000
vn 0.0000 -1.0000 0.0000
vn 0.0000 1.0000 0.0000
s off
f 58/162/31 66/163/31 65/164/31
f 60/165/32 67/166/32 66/167/32
f 64/168/33 68/169/33 67/170/33
f 62/171/34 65/172/34 68/173/34
f 63/174/35 57/175/35 59/176/35
f 60/177/36 62/178/36 64/179/36
f 68/180/34 57/181/34 61/182/34
f 67/170/33 61/183/33 63/184/33
f 66/185/32 63/186/32 59/187/32
f 65/164/31 59/188/31 57/189/31
f 58/162/31 60/190/31 66/163/31
f 60/165/32 64/191/32 67/166/32
f 64/168/33 62/192/33 68/169/33
f 62/171/34 58/193/34 65/172/34
f 63/174/35 61/194/35 57/175/35
f 60/177/36 58/195/36 62/178/36
f 68/180/34 65/196/34 57/181/34
f 67/170/33 68/169/33 61/183/33
f 66/185/32 67/197/32 63/186/32
f 65/164/31 66/198/31 59/188/31
